<svg xmlns="http://www.w3.org/2000/svg" width="11" height="11.03" viewBox="0 0 11 11.03"><defs><style>.cls-1{fill:#f9b81e;fill-rule:evenodd}</style></defs><path id="ic_phone" class="cls-1" d="M137.757 4467.71l-1.7-1.71a.875.875 0 0 0-1.249.03l-.856.86c-.054-.03-.11-.06-.169-.1a8.5 8.5 0 0 1-2.059-1.49 8.583 8.583 0 0 1-1.492-2.08c-.032-.06-.062-.11-.092-.16l.574-.58.282-.29a.886.886 0 0 0 .023-1.25l-1.7-1.71a.883.883 0 0 0-1.249.02l-.479.49.013.01a2.814 2.814 0 0 0-.394.7 2.9 2.9 0 0 0-.176.71c-.224 1.87.626 3.58 2.932 5.9 3.189 3.21 5.758 2.96 5.869 2.95a2.57 2.57 0 0 0 .708-.18 2.8 2.8 0 0 0 .694-.39l.01.01.485-.48a.9.9 0 0 0 .025-1.26z" transform="translate(-127 -4458.97)"/></svg>