<svg xmlns="http://www.w3.org/2000/svg" width="77" height="77" viewBox="0 0 77 77"><defs><style>.cls-1{fill:#ffbf1d;fill-rule:evenodd}</style></defs><path id="icon_1" data-name="icon 1" class="cls-1" d="M266.388 1191.76a2.82 2.82 0 1 0 2.829 2.82 2.831 2.831 0 0 0-2.829-2.82zm0 4.05a1.23 1.23 0 1 1 1.234-1.23 1.232 1.232 0 0 1-1.234 1.23zm-10.349-3.3a.845.845 0 1 0 .852.85.851.851 0 0 0-.852-.85zm-17.2 17.89a.845.845 0 1 0 .851.85.851.851 0 0 0-.855-.85zm-10.49 6.05a.845.845 0 1 0 .852.84.849.849 0 0 0-.856-.84zm45.526-6.86c.254.36-.254-.35 0 0zm0 0a.81.81 0 0 0-1.112-.19 18.035 18.035 0 0 1-2.449 1.36.778.778 0 0 0-.41.19c-1.38.63-2.859 1.21-3.888 1.57a172.165 172.165 0 0 1-20.865 5.77 142.351 142.351 0 0 1-21.388 3.03.8.8 0 0 0-.753.84.79.79 0 0 0 .795.75h.044c1.657-.09 3.39-.23 5.178-.41.016.03 10.129 13.2 10.129 13.2a.808.808 0 0 0 1.4-.27s4.527-15.49 4.561-15.5l3.464 14.8a.8.8 0 0 0 1.35.37l4.166-4.28 5.81 1.97a.8.8 0 0 0 1.034-.93l-3.451-14.74 10.823 11.69a.8.8 0 0 0 1.38-.46l1.488-16.24a18.8 18.8 0 0 0 2.5-1.41.8.8 0 0 0 .19-1.11zm-34.413 23.89l-8.59-11.19c3.957-.46 8.154-1.14 12.412-1.99zm19.6-2.66l-4.928-1.67a.8.8 0 0 0-.83.2l-3.5 3.6-3.126-13.36c3.091-.67 6.189-1.43 9.225-2.26zm9.207-4.4l-9.235-9.98c2.583-.76 5.1-1.57 7.513-2.42.723-.25 1.812-.67 2.964-1.16zm4.168-22.24a.8.8 0 0 0-.859-.73 21.06 21.06 0 0 1-5.738-.57 163.417 163.417 0 0 1-40.179-13.79.8.8 0 0 0-1.076.34.791.791 0 0 0 .34 1.07c1.427.74 2.93 1.48 4.494 2.2l-6.1 13.54a.8.8 0 0 0 .847 1.11l5.919-.89 3.422 5.08a.806.806 0 0 0 1.39-.12l6.262-13.9c.2.07.4.14.6.22.067 1.09 1.229 16.45 1.229 16.45a.8.8 0 0 0 1.381.48l11.564-12.47c.248.06.5.13.743.19l-1.861 10.4a.8.8 0 1 0 1.57.28l1.84-10.28c2.485.63 4.932 1.19 7.3 1.65.664.13 1.323.26 1.979.36l-.83 4.11a.8.8 0 0 0 1.564.32l.853-4.23c.516.05 1.032.08 1.548.08.353 0 .707-.01 1.061-.04a.8.8 0 0 0 .732-.86zm-38.406 5.28l-2.9-4.31a.818.818 0 0 0-.781-.34l-4.973.75 5.5-12.2c2.785 1.25 5.742 2.46 8.792 3.6zm10.41 2.8l-1.1-13.96c3.579 1.25 7.241 2.4 10.867 3.42zm-8.157-14.5a.8.8 0 0 0-.906-.67l-3.722.55a.794.794 0 0 0 .115 1.58.475.475 0 0 0 .118-.01l3.722-.54a.8.8 0 0 0 .668-.91zm-1.3 3.24a.8.8 0 0 0-.905-.67l-3.723.55a.794.794 0 0 0 .116 1.58.467.467 0 0 0 .117-.01l3.723-.54a.8.8 0 0 0 .665-.91zm18.607 19.01a.787.787 0 0 0-1.12.13l-2.338 2.94a.785.785 0 0 0 .129 1.11.768.768 0 0 0 .5.17.788.788 0 0 0 .625-.3l2.339-2.94a.785.785 0 0 0-.142-1.11zm1.276 3.25a.8.8 0 0 0-1.12.13l-2.339 2.94a.786.786 0 0 0 .13 1.11.768.768 0 0 0 .5.17.788.788 0 0 0 .625-.3l2.339-2.93a.8.8 0 0 0-.142-1.12zM210 1174h2v12h-2v-12zm12 0v2h-12v-2h12zm65 77h-2v-12h2v12zm-12 0v-2h12v2h-12zm12-77h-2v12h2v-12zm-12 0v2h12v-2h-12zm-65 77h2v-12h-2v12zm12 0v-2h-12v2h12z" transform="translate(-210 -1174)"/></svg>