<svg xmlns="http://www.w3.org/2000/svg" width="77" height="77" viewBox="0 0 77 77"><defs><style>.cls-1{fill:#ffbf1d;fill-rule:evenodd}</style></defs><path id="icon_4" data-name="icon 4" class="cls-1" d="M406 1398h2v12h-2v-12zm12 0v2h-12v-2h12zm65 77h-2v-12h2v12zm-12 0v-2h12v2h-12zm12-77h-2v12h2v-12zm-12 0v2h12v-2h-12zm-65 77h2v-12h-2v12zm12 0v-2h-12v2h12zm35.1-39.27a.9.9 0 0 0-.9.89v8.83a.9.9 0 0 0 1.8 0v-8.83a.9.9 0 0 0-.9-.89zm-7.2-22.08a.9.9 0 0 0 .9-.89v-.88a.9.9 0 0 0-1.8 0v.88a.9.9 0 0 0 .9.89zm-15.3 19.43v15.9a.9.9 0 0 0 .9.89h26.992a.9.9 0 0 0 .9-.89v-15.9a.893.893 0 0 0-.9-.88H431.5a.894.894 0 0 0-.9.88zm1.8.89h25.192v14.13H432.4v-14.13zm38.052-17.05a.873.873 0 0 0 .636-.26l.636-.62a.872.872 0 0 0 0-1.25.9.9 0 0 0-1.272 0l-.636.62a.885.885 0 0 0 .637 1.51zm-2.963 2.91a.919.919 0 0 0 .637-.26l.636-.62a.874.874 0 0 0 0-1.25.9.9 0 0 0-1.273 0l-.636.62a.872.872 0 0 0 0 1.25.918.918 0 0 0 .637.26zm-19.794 15.9a.9.9 0 0 0-.9.89v8.83a.9.9 0 0 0 1.8 0v-8.83a.9.9 0 0 0-.895-.89zm8.41-16.82a.955.955 0 0 0 .285.05.9.9 0 0 0 .852-.61l.607-1.78a.886.886 0 0 0-.569-1.12.9.9 0 0 0-1.137.56l-.606 1.78a.877.877 0 0 0 .569 1.12zm-13.805 16.82a.9.9 0 0 0-.9.89v8.83a.9.9 0 0 0 1.8 0v-8.83a.9.9 0 0 0-.9-.89zm15.626-22.17a.935.935 0 0 0 .285.04.9.9 0 0 0 .853-.6l.284-.84a.885.885 0 0 0-.568-1.12.909.909 0 0 0-1.138.56l-.285.84a.886.886 0 0 0 .567 1.12zm-21.026 22.17a.9.9 0 0 0-.9.89v8.83a.9.9 0 0 0 1.8 0v-8.83a.9.9 0 0 0-.9-.89zm17.71-12.41a.949.949 0 0 0 .284.05.9.9 0 0 0 .853-.61l.285-.84a.872.872 0 0 0-.568-1.11.9.9 0 0 0-1.138.55l-.285.84a.878.878 0 0 0 .569 1.12zm-18.849-1.4l.286.84a.9.9 0 0 0 .853.61.949.949 0 0 0 .284-.05.879.879 0 0 0 .569-1.12l-.285-.84a.9.9 0 0 0-1.138-.55.873.873 0 0 0-.569 1.11zm2.938 35.02a.887.887 0 0 0-.9.88v5.3a.9.9 0 0 0 1.8 0v-5.3a.887.887 0 0 0-.899-.88zm9-3.54H429.7a2.68 2.68 0 0 1-2.7-2.65v-19.43a2.68 2.68 0 0 1 2.7-2.65h23.4a.885.885 0 1 0 0-1.77h-23.4a4.463 4.463 0 0 0-4.5 4.42v19.43a4.463 4.463 0 0 0 4.5 4.42h18a.885.885 0 1 0 0-1.77zm16.2-15.9a.893.893 0 0 0-.9.88v12.37a2.679 2.679 0 0 1-2.7 2.65h-9a.9.9 0 0 0-.9.89v8.83a.9.9 0 0 0 1.8 0v-7.95h8.1a4.463 4.463 0 0 0 4.5-4.42v-12.37a.893.893 0 0 0-.907-.88zm-37.799-14.13a.918.918 0 0 0 .636-.26.872.872 0 0 0 0-1.25l-.636-.63a.922.922 0 0 0-1.273 0 .874.874 0 0 0 0 1.25l.637.63a.915.915 0 0 0 .636.26zm45.271 3.57l-4.971-1.62-1.659-4.88a.9.9 0 0 0-1.706 0l-1.658 4.88-4.971 1.62a.881.881 0 0 0 0 1.68l4.971 1.63 1.658 4.88a.906.906 0 0 0 1.706 0l1.659-4.88 4.971-1.63a.881.881 0 0 0 .003-1.68zm-5.967 1.77a.9.9 0 0 0-.569.56l-.946 2.79-.947-2.79a.9.9 0 0 0-.569-.56l-2.837-.93 2.837-.93a.859.859 0 0 0 .569-.56l.947-2.78.946 2.78a.859.859 0 0 0 .569.56l2.837.93zm-42.86-10.97a.921.921 0 0 0-1.272 0 .872.872 0 0 0 0 1.25l1.185 1.16a.908.908 0 0 0 1.272 0 .86.86 0 0 0 0-1.24zm11.4-1.17l.606 1.78a.9.9 0 0 0 .853.61.955.955 0 0 0 .285-.05.877.877 0 0 0 .568-1.12l-.606-1.78a.907.907 0 0 0-1.137-.56.885.885 0 0 0-.569 1.12zm11.953 6.8a.9.9 0 0 0 .9-.89v-.88a.9.9 0 0 0-1.8 0v.88a.9.9 0 0 0 .903.89zM432.732 1413a.9.9 0 0 0 .853.6.935.935 0 0 0 .285-.04.887.887 0 0 0 .569-1.12l-.285-.84a.911.911 0 0 0-1.138-.56.885.885 0 0 0-.568 1.12zm13.165 5.95a.9.9 0 0 0 .9-.89v-1.76a.9.9 0 0 0-1.8 0v1.76a.9.9 0 0 0 .903.89zm-26.356-4.16a.9.9 0 0 0-1.272 0 .872.872 0 0 0 0 1.25l.636.62a.892.892 0 0 0 1.272-1.25z" transform="translate(-406 -1398)"/></svg>