<svg xmlns="http://www.w3.org/2000/svg" xmlns:xlink="http://www.w3.org/1999/xlink" width="29" height="29" viewBox="0 0 29 29">
  <metadata><?xpacket begin="﻿" id="W5M0MpCehiHzreSzNTczkc9d"?>
<x:xmpmeta xmlns:x="adobe:ns:meta/" x:xmptk="Adobe XMP Core 5.6-c140 79.160451, 2017/05/06-01:08:21        ">
   <rdf:RDF xmlns:rdf="http://www.w3.org/1999/02/22-rdf-syntax-ns#">
      <rdf:Description rdf:about=""/>
   </rdf:RDF>
</x:xmpmeta>
                                                                                                    
                                                                                                    
                                                                                                    
                                                                                                    
                                                                                                    
                                                                                                    
                                                                                                    
                                                                                                    
                                                                                                    
                                                                                                    
                                                                                                    
                                                                                                    
                                                                                                    
                                                                                                    
                                                                                                    
                                                                                                    
                                                                                                    
                                                                                                    
                                                                                                    
                                                                                                    
                           
<?xpacket end="w"?></metadata>
<defs>
    <style>
      .cls-1 {
        fill: #080425;
        fill-rule: evenodd;
        opacity: 0.3;
        filter: url(#filter);
      }
    </style>
    <filter id="filter" x="837" y="4580" width="29" height="29" filterUnits="userSpaceOnUse">
      <feFlood result="flood" flood-color="#352135"/>
      <feComposite result="composite" operator="in" in2="SourceGraphic"/>
      <feBlend result="blend" in2="SourceGraphic"/>
    </filter>
  </defs>
  <path id="лого_тиан" data-name="лого тиан" class="cls-1" d="M851.5,4580a14.5,14.5,0,1,1-14.5,14.5A14.5,14.5,0,0,1,851.5,4580Zm0,3.27a11.23,11.23,0,1,1-11.229,11.23A11.231,11.231,0,0,1,851.5,4583.27Zm-1.639,3.27-6.112,10.34a9.052,9.052,0,0,0,.8,2.31,2.469,2.469,0,0,0,.751.75h12.278a6.219,6.219,0,0,0,1.5-2.04,2.424,2.424,0,0,0,.215-0.91l-6.059-10.45a4.035,4.035,0,0,0-1.793-.54A2.067,2.067,0,0,0,849.861,4586.54Zm1.77,4.13,3.668,6.08h-7.337Z" transform="translate(-837 -4580)"/>
</svg>
