<svg xmlns="http://www.w3.org/2000/svg" width="29" height="29" viewBox="0 0 29 29"><defs><style>.cls-1{fill:#080425;fill-rule:evenodd;opacity:.3;filter:url(#filter)}</style><filter id="filter" x="837" y="4580" width="29" height="29" filterUnits="userSpaceOnUse"><feFlood result="flood" flood-color="#352135"/><feComposite result="composite" operator="in" in2="SourceGraphic"/><feBlend result="blend" in2="SourceGraphic"/></filter></defs><path id="лого_тиан" data-name="лого тиан" class="cls-1" d="M851.5 4580a14.5 14.5 0 1 1-14.5 14.5 14.5 14.5 0 0 1 14.5-14.5zm0 3.27a11.23 11.23 0 1 1-11.229 11.23 11.231 11.231 0 0 1 11.229-11.23zm-1.639 3.27l-6.112 10.34a9.052 9.052 0 0 0 .8 2.31 2.469 2.469 0 0 0 .751.75h12.278a6.219 6.219 0 0 0 1.5-2.04 2.424 2.424 0 0 0 .215-.91l-6.059-10.45a4.035 4.035 0 0 0-1.793-.54 2.067 2.067 0 0 0-1.58.54zm1.77 4.13l3.668 6.08h-7.337z" transform="translate(-837 -4580)"/></svg>