<svg xmlns="http://www.w3.org/2000/svg" width="11" height="11.03" viewBox="0 0 11 11.03">
  <metadata><?xpacket begin="﻿" id="W5M0MpCehiHzreSzNTczkc9d"?>
<x:xmpmeta xmlns:x="adobe:ns:meta/" x:xmptk="Adobe XMP Core 5.6-c140 79.160451, 2017/05/06-01:08:21        ">
   <rdf:RDF xmlns:rdf="http://www.w3.org/1999/02/22-rdf-syntax-ns#">
      <rdf:Description rdf:about=""/>
   </rdf:RDF>
</x:xmpmeta>
                                                                                                    
                                                                                                    
                                                                                                    
                                                                                                    
                                                                                                    
                                                                                                    
                                                                                                    
                                                                                                    
                                                                                                    
                                                                                                    
                                                                                                    
                                                                                                    
                                                                                                    
                                                                                                    
                                                                                                    
                                                                                                    
                                                                                                    
                                                                                                    
                                                                                                    
                                                                                                    
                           
<?xpacket end="w"?></metadata>
<defs>
    <style>
      .cls-1 {
        fill: #f9b81e;
        fill-rule: evenodd;
      }
    </style>
  </defs>
  <path id="ic_phone" class="cls-1" d="M137.757,4467.71l-1.7-1.71a0.875,0.875,0,0,0-1.249.03l-0.856.86c-0.054-.03-0.11-0.06-0.169-0.1a8.5,8.5,0,0,1-2.059-1.49,8.583,8.583,0,0,1-1.492-2.08c-0.032-.06-0.062-0.11-0.092-0.16l0.574-.58,0.282-.29a0.886,0.886,0,0,0,.023-1.25l-1.7-1.71a0.883,0.883,0,0,0-1.249.02l-0.479.49,0.013,0.01a2.814,2.814,0,0,0-.394.7,2.9,2.9,0,0,0-.176.71c-0.224,1.87.626,3.58,2.932,5.9,3.189,3.21,5.758,2.96,5.869,2.95a2.57,2.57,0,0,0,.708-0.18,2.8,2.8,0,0,0,.694-0.39l0.01,0.01,0.485-.48A0.9,0.9,0,0,0,137.757,4467.71Z" transform="translate(-127 -4458.97)"/>
</svg>
